<svg width="25" height="25" viewBox="0 0 25 25" fill="none" xmlns="http://www.w3.org/2000/svg">
<g clip-path="url(#clip0_12002_294)">
<path d="M2.45861 13.5139H22.4752C23.3002 13.5139 23.9689 12.8451 23.9689 12.0201C23.9689 11.1951 23.3002 10.5264 22.4752 10.5264H2.45861C1.63361 10.5264 0.964844 11.1951 0.964844 12.0201C0.964797 12.8451 1.63361 13.5139 2.45861 13.5139Z" fill="#666666"/>
<path d="M13.9606 7.30438C13.5246 7.30438 13.1699 7.65904 13.1699 8.09502V9.12004H19.2889V8.09502C19.2889 7.65904 18.9343 7.30438 18.4983 7.30438H13.9606Z" fill="#666666"/>
<path d="M4.23733 8.09508C4.23733 6.88369 5.22283 5.89819 6.43422 5.89819H10.972C11.5484 5.89819 12.0734 6.12169 12.4657 6.48619C12.858 6.12169 13.383 5.89819 13.9595 5.89819H18.4972C19.7086 5.89819 20.6941 6.88369 20.6941 8.09508V9.12009H22.9764V4.27697C22.9764 3.45197 22.3076 2.7832 21.4826 2.7832H3.44884C2.62384 2.7832 1.95508 3.45197 1.95508 4.27697V9.12009H4.23733V8.09508Z" fill="#666666"/>
<path d="M6.43517 7.30438C5.99919 7.30438 5.64453 7.65904 5.64453 8.09502V9.12004H11.7635V8.09502C11.7635 7.65904 11.4089 7.30438 10.9729 7.30438H6.43517Z" fill="#666666"/>
<path d="M0.466797 14.9201V21.3897H1.87305V18.8257H23.0605V21.3897H24.4668V14.9201H0.466797Z" fill="#666666"/>
</g>
<defs>
<clipPath id="clip0_12002_294">
<rect width="24" height="24" fill="white" transform="translate(0.466797 0.0864258)"/>
</clipPath>
</defs>
</svg>
