<svg width="25" height="25" viewBox="0 0 25 25" fill="none" xmlns="http://www.w3.org/2000/svg">
<g clip-path="url(#clip0_12002_272)">
<path d="M20.0874 10.3104C20.3683 10.3104 20.596 10.0827 20.596 9.80181V8.17036C20.596 7.88946 20.3683 7.66177 20.0874 7.66177L19.3636 7.66618L16.9883 10.3104H20.0874Z" fill="#666666"/>
<path d="M4.84257 10.3102H7.96608L5.54964 7.66168H4.84257C4.56167 7.66168 4.33398 7.88937 4.33398 8.17027V9.80159C4.33398 10.0825 4.56167 10.3102 4.84257 10.3102Z" fill="#666666"/>
<path d="M12.7573 12.933L17.4705 7.66177H7.46094L12.2516 12.935C12.3874 13.0845 12.6227 13.0836 12.7573 12.933Z" fill="#666666"/>
<path d="M14.0849 20.351H13.2093V14.4323C12.9993 14.5536 12.7593 14.6198 12.5117 14.6208C12.5098 14.6208 12.508 14.6208 12.5061 14.6208C12.2567 14.6208 12.0146 14.5545 11.8029 14.4323V20.351H10.8477C10.4594 20.351 10.1445 20.6658 10.1445 21.0541C10.1445 21.4425 10.4594 21.7573 10.8477 21.7573H14.0849C14.4733 21.7573 14.7881 21.4425 14.7881 21.0541C14.7881 20.6658 14.4732 20.351 14.0849 20.351Z" fill="#666666"/>
<path d="M6.39649 12.2667H1.87315V3.93151C1.87315 3.54317 1.55831 3.22833 1.16997 3.22833C0.781632 3.22833 0.466797 3.54317 0.466797 3.93151V21.1104C0.466797 21.4988 0.781632 21.8136 1.16997 21.8136C1.55831 21.8136 1.87315 21.4988 1.87315 21.1104V15.8581H6.98585V21.1104C6.98585 21.4988 7.30068 21.8136 7.68902 21.8136C8.07736 21.8136 8.3922 21.4988 8.3922 21.1104V14.2624C8.3922 13.1619 7.49691 12.2667 6.39649 12.2667Z" fill="#666666"/>
<path d="M23.7639 3.22833C23.3756 3.22833 23.0607 3.54317 23.0607 3.93151V12.2667H18.6422C17.5417 12.2667 16.6465 13.162 16.6465 14.2624V21.1104C16.6465 21.4988 16.9613 21.8136 17.3497 21.8136C17.738 21.8136 18.0528 21.4988 18.0528 21.1104V15.8569H23.0608V21.1104C23.0608 21.4988 23.3756 21.8136 23.764 21.8136C24.1523 21.8136 24.4671 21.4988 24.4671 21.1104V3.93151C24.4671 3.54317 24.1523 3.22833 23.7639 3.22833Z" fill="#666666"/>
</g>
<defs>
<clipPath id="clip0_12002_272">
<rect width="24" height="24" fill="white" transform="translate(0.466797 0.520996)"/>
</clipPath>
</defs>
</svg>
