<svg width="20" height="21" viewBox="0 0 20 21" fill="none" xmlns="http://www.w3.org/2000/svg">
<g clip-path="url(#clip0_12002_835)">
<path d="M10 20.9253C15.5228 20.9253 20 16.4481 20 10.9253C20 5.40245 15.5228 0.925293 10 0.925293C4.47715 0.925293 0 5.40245 0 10.9253C0 16.4481 4.47715 20.9253 10 20.9253Z" fill="white"/>
<path d="M12.5139 11.3167H10.7295V17.8538H8.02602V11.3167H6.74023V9.01928H8.02602V7.53259C8.02602 6.46945 8.53103 4.80469 10.7536 4.80469L12.7561 4.81307V7.04309H11.3031C11.0648 7.04309 10.7297 7.16217 10.7297 7.66932V9.02141H12.7501L12.5139 11.3167Z" fill="#305F64"/>
</g>
<defs>
<clipPath id="clip0_12002_835">
<rect width="20" height="20" fill="white" transform="translate(0 0.925293)"/>
</clipPath>
</defs>
</svg>
