<svg width="25" height="25" viewBox="0 0 25 25" fill="none" xmlns="http://www.w3.org/2000/svg">
<g clip-path="url(#clip0_12002_259)">
<path d="M0.472656 24.7522H10.3586V19.083H0.472656V24.7522ZM2.63481 20.5511H8.24331V21.9567H2.63481V20.5511Z" fill="#666666"/>
<path d="M0.472656 17.6774H10.3586V12.1019H0.472656V17.6774ZM2.63481 13.5975H8.24331V15.0031H2.63481V13.5975Z" fill="#666666"/>
<path d="M11.7637 24.7522H24.4608V12.1019H11.7637V24.7522ZM20.1972 13.5975H21.6028V15.0378H20.1972V13.5975ZM17.386 13.5975H18.7916V15.0378H17.386V13.5975ZM14.5749 13.5975H15.9805V15.0378H14.5749V13.5975ZM14.5749 16.2952H21.6028V21.9411H14.5749V16.2952Z" fill="#666666"/>
<path d="M20.1972 3.99271V0.752197H15.9805V3.99506L11.7637 6.8062V9.29071H24.4608V6.80385L20.1972 3.99271Z" fill="#666666"/>
</g>
<defs>
<clipPath id="clip0_12002_259">
<rect width="24" height="24" fill="white" transform="translate(0.466797 0.752197)"/>
</clipPath>
</defs>
</svg>
