<svg width="25" height="25" viewBox="0 0 25 25" fill="none" xmlns="http://www.w3.org/2000/svg">
<g clip-path="url(#clip0_12002_248)">
<path d="M4.91992 12.0491H11.0605C11.6004 12.0491 12.0933 12.2532 12.4668 12.5879C12.8403 12.2531 13.3332 12.0491 13.873 12.0491H20.0137V4.50853C20.0137 4.12204 19.7044 3.80043 19.318 3.79907C19.3121 3.79907 19.5579 3.79907 5.62305 3.79907C5.22292 3.79907 4.91992 4.1271 4.91992 4.50853V12.0491Z" fill="#666666"/>
<path d="M13.1699 14.1584V15.7991H20.0137C20.0137 14.7605 20.0137 14.5472 20.0137 13.4553H13.873C13.4853 13.4553 13.1699 13.7707 13.1699 14.1584Z" fill="#666666"/>
<path d="M22.194 8.67515C21.7606 8.68865 21.4199 9.05221 21.4199 9.4858C21.4199 9.59708 21.4199 16.9016 21.4199 16.5022C21.4199 16.8905 21.1051 17.2053 20.7168 17.2053C20.1547 17.2053 3.68303 17.2053 4.2168 17.2053C3.82848 17.2053 3.51367 16.8905 3.51367 16.5022C3.51367 16.2428 3.51367 9.41816 3.51367 9.4858C3.51367 9.05221 3.17303 8.68865 2.73962 8.67515C1.49041 8.63624 0.466797 9.63561 0.466797 10.8772V18.0959C0.466797 19.2609 1.41119 20.2053 2.57617 20.2053H3.51367V20.9823C3.51367 21.3609 3.80463 21.6867 4.18281 21.7045C4.58659 21.7236 4.91992 21.4018 4.91992 21.0022V20.2053H20.0137V20.9823C20.0137 21.3609 20.3046 21.6867 20.6828 21.7045C21.0866 21.7236 21.4199 21.4018 21.4199 21.0022V20.2053H22.3574C23.5224 20.2053 24.4668 19.2609 24.4668 18.0959V10.9168C24.4668 9.61879 23.4352 8.63647 22.194 8.67515Z" fill="#666666"/>
<path d="M11.7637 14.1584C11.7637 13.7707 11.4482 13.4553 11.0605 13.4553H4.91992V15.7991H11.7637V14.1584Z" fill="#666666"/>
</g>
<defs>
<clipPath id="clip0_12002_248">
<rect width="24" height="24" fill="white" transform="translate(0.466797 0.752197)"/>
</clipPath>
</defs>
</svg>
