<svg width="144" height="24" viewBox="0 0 144 24" fill="none" xmlns="http://www.w3.org/2000/svg">
<path d="M-0.0079999 1.66631H7.624C9.448 1.66631 11.056 2.01831 12.448 2.72231C13.856 3.41031 14.944 4.38631 15.712 5.65031C16.496 6.91431 16.888 8.38631 16.888 10.0663C16.888 11.7463 16.496 13.2183 15.712 14.4823C14.944 15.7463 13.856 16.7303 12.448 17.4343C11.056 18.1223 9.448 18.4663 7.624 18.4663H-0.0079999V1.66631ZM7.432 15.2743C9.112 15.2743 10.448 14.8103 11.44 13.8823C12.448 12.9383 12.952 11.6663 12.952 10.0663C12.952 8.46631 12.448 7.20231 11.44 6.27431C10.448 5.33031 9.112 4.85831 7.432 4.85831H3.88V15.2743H7.432ZM32.5641 5.55431V18.4663H29.0121V16.9303C28.5161 17.4903 27.9241 17.9223 27.2361 18.2263C26.5481 18.5143 25.8041 18.6583 25.0041 18.6583C23.3081 18.6583 21.9641 18.1703 20.9721 17.1943C19.9801 16.2183 19.4841 14.7703 19.4841 12.8503V5.55431H23.2281V12.2983C23.2281 14.3783 24.1001 15.4183 25.8441 15.4183C26.7401 15.4183 27.4601 15.1303 28.0041 14.5543C28.5481 13.9623 28.8201 13.0903 28.8201 11.9383V5.55431H32.5641ZM49.1847 0.658308V18.4663H45.6087V16.9783C44.6807 18.0983 43.3367 18.6583 41.5767 18.6583C40.3607 18.6583 39.2567 18.3863 38.2647 17.8423C37.2887 17.2983 36.5207 16.5223 35.9607 15.5143C35.4007 14.5063 35.1207 13.3383 35.1207 12.0103C35.1207 10.6823 35.4007 9.51431 35.9607 8.50631C36.5207 7.49831 37.2887 6.72231 38.2647 6.17831C39.2567 5.63431 40.3607 5.36231 41.5767 5.36231C43.2247 5.36231 44.5127 5.88231 45.4407 6.92231V0.658308H49.1847ZM42.2247 15.5863C43.1687 15.5863 43.9527 15.2663 44.5767 14.6263C45.2007 13.9703 45.5127 13.0983 45.5127 12.0103C45.5127 10.9223 45.2007 10.0583 44.5767 9.41831C43.9527 8.76231 43.1687 8.43431 42.2247 8.43431C41.2647 8.43431 40.4727 8.76231 39.8487 9.41831C39.2247 10.0583 38.9127 10.9223 38.9127 12.0103C38.9127 13.0983 39.2247 13.9703 39.8487 14.6263C40.4727 15.2663 41.2647 15.5863 42.2247 15.5863ZM65.2979 12.0583C65.2979 12.1063 65.2739 12.4423 65.2259 13.0663H55.4579C55.6339 13.8663 56.0499 14.4983 56.7059 14.9623C57.3619 15.4263 58.1779 15.6583 59.1539 15.6583C59.8259 15.6583 60.4179 15.5623 60.9299 15.3703C61.4579 15.1623 61.9459 14.8423 62.3939 14.4103L64.3859 16.5703C63.1699 17.9623 61.3939 18.6583 59.0579 18.6583C57.6019 18.6583 56.3139 18.3783 55.1939 17.8183C54.0739 17.2423 53.2099 16.4503 52.6019 15.4423C51.9939 14.4343 51.6899 13.2903 51.6899 12.0103C51.6899 10.7463 51.9859 9.61031 52.5779 8.60231C53.1859 7.57831 54.0099 6.78631 55.0499 6.22631C56.1059 5.65031 57.2819 5.36231 58.5779 5.36231C59.8419 5.36231 60.9859 5.63431 62.0099 6.17831C63.0339 6.72231 63.8339 7.50631 64.4099 8.53031C65.0019 9.53831 65.2979 10.7143 65.2979 12.0583ZM58.6019 8.19431C57.7539 8.19431 57.0419 8.43431 56.4659 8.91431C55.8899 9.39431 55.5379 10.0503 55.4099 10.8823H61.7699C61.6419 10.0663 61.2899 9.41831 60.7139 8.93831C60.1379 8.44231 59.4339 8.19431 58.6019 8.19431ZM73.5745 18.7543C72.2465 18.7543 70.9585 18.5783 69.7105 18.2263C68.4785 17.8583 67.4865 17.3863 66.7345 16.8103L68.0545 13.8823C68.7745 14.4103 69.6305 14.8343 70.6225 15.1543C71.6145 15.4743 72.6065 15.6343 73.5985 15.6343C74.7025 15.6343 75.5185 15.4743 76.0465 15.1543C76.5745 14.8183 76.8385 14.3783 76.8385 13.8343C76.8385 13.4343 76.6785 13.1063 76.3585 12.8503C76.0545 12.5783 75.6545 12.3623 75.1585 12.2023C74.6785 12.0423 74.0225 11.8663 73.1905 11.6743C71.9105 11.3703 70.8625 11.0663 70.0465 10.7623C69.2305 10.4583 68.5265 9.97031 67.9345 9.29831C67.3585 8.62631 67.0705 7.73031 67.0705 6.61031C67.0705 5.63431 67.3345 4.75431 67.8625 3.97031C68.3905 3.17031 69.1825 2.53831 70.2385 2.07431C71.3105 1.61031 72.6145 1.37831 74.1505 1.37831C75.2225 1.37831 76.2705 1.50631 77.2945 1.76231C78.3185 2.01831 79.2145 2.38631 79.9825 2.86631L78.7825 5.81831C77.2305 4.93831 75.6785 4.49831 74.1265 4.49831C73.0385 4.49831 72.2305 4.67431 71.7025 5.02631C71.1905 5.37831 70.9345 5.84231 70.9345 6.41831C70.9345 6.99431 71.2305 7.42631 71.8225 7.71431C72.4305 7.98631 73.3505 8.25831 74.5825 8.53031C75.8625 8.83431 76.9105 9.13831 77.7265 9.44231C78.5425 9.74631 79.2385 10.2263 79.8145 10.8823C80.4065 11.5383 80.7025 12.4263 80.7025 13.5463C80.7025 14.5063 80.4305 15.3863 79.8865 16.1863C79.3585 16.9703 78.5585 17.5943 77.4865 18.0583C76.4145 18.5223 75.1105 18.7543 73.5745 18.7543ZM90.9432 5.36231C92.5432 5.36231 93.8312 5.84231 94.8072 6.80231C95.7992 7.76231 96.2952 9.18631 96.2952 11.0743V18.4663H92.5512V11.6503C92.5512 10.6263 92.3272 9.86631 91.8792 9.37031C91.4312 8.85831 90.7832 8.60231 89.9352 8.60231C88.9912 8.60231 88.2392 8.89831 87.6792 9.49031C87.1192 10.0663 86.8392 10.9303 86.8392 12.0823V18.4663H83.0952V0.658308H86.8392V6.89831C87.3352 6.40231 87.9352 6.02631 88.6392 5.77031C89.3432 5.49831 90.1112 5.36231 90.9432 5.36231ZM104.897 5.36231C106.897 5.36231 108.433 5.84231 109.505 6.80231C110.577 7.74631 111.113 9.17831 111.113 11.0983V18.4663H107.609V16.8583C106.905 18.0583 105.593 18.6583 103.673 18.6583C102.681 18.6583 101.817 18.4903 101.081 18.1543C100.361 17.8183 99.8089 17.3543 99.4249 16.7623C99.0409 16.1703 98.8489 15.4983 98.8489 14.7463C98.8489 13.5463 99.2969 12.6023 100.193 11.9143C101.105 11.2263 102.505 10.8823 104.393 10.8823H107.369C107.369 10.0663 107.121 9.44231 106.625 9.01031C106.129 8.56231 105.385 8.33831 104.393 8.33831C103.705 8.33831 103.025 8.45031 102.353 8.67431C101.697 8.88231 101.137 9.17031 100.673 9.53831L99.3289 6.92231C100.033 6.42631 100.873 6.04231 101.849 5.77031C102.841 5.49831 103.857 5.36231 104.897 5.36231ZM104.609 16.1383C105.249 16.1383 105.817 15.9943 106.313 15.7063C106.809 15.4023 107.161 14.9623 107.369 14.3863V13.0663H104.801C103.265 13.0663 102.497 13.5703 102.497 14.5783C102.497 15.0583 102.681 15.4423 103.049 15.7303C103.433 16.0023 103.953 16.1383 104.609 16.1383ZM122.133 5.36231C123.333 5.36231 124.421 5.64231 125.397 6.20231C126.389 6.74631 127.165 7.52231 127.725 8.53031C128.285 9.52231 128.565 10.6823 128.565 12.0103C128.565 13.3383 128.285 14.5063 127.725 15.5143C127.165 16.5063 126.389 17.2823 125.397 17.8423C124.421 18.3863 123.333 18.6583 122.133 18.6583C120.485 18.6583 119.189 18.1383 118.245 17.0983V23.1223H114.501V5.55431H118.077V7.04231C119.005 5.92231 120.357 5.36231 122.133 5.36231ZM121.485 15.5863C122.445 15.5863 123.229 15.2663 123.837 14.6263C124.461 13.9703 124.773 13.0983 124.773 12.0103C124.773 10.9223 124.461 10.0583 123.837 9.41831C123.229 8.76231 122.445 8.43431 121.485 8.43431C120.525 8.43431 119.733 8.76231 119.109 9.41831C118.501 10.0583 118.197 10.9223 118.197 12.0103C118.197 13.0983 118.501 13.9703 119.109 14.6263C119.733 15.2663 120.525 15.5863 121.485 15.5863ZM143.72 12.0583C143.72 12.1063 143.696 12.4423 143.648 13.0663H133.88C134.056 13.8663 134.472 14.4983 135.128 14.9623C135.784 15.4263 136.6 15.6583 137.576 15.6583C138.248 15.6583 138.84 15.5623 139.352 15.3703C139.88 15.1623 140.368 14.8423 140.816 14.4103L142.808 16.5703C141.592 17.9623 139.816 18.6583 137.48 18.6583C136.024 18.6583 134.736 18.3783 133.616 17.8183C132.496 17.2423 131.632 16.4503 131.024 15.4423C130.416 14.4343 130.112 13.2903 130.112 12.0103C130.112 10.7463 130.408 9.61031 131 8.60231C131.608 7.57831 132.432 6.78631 133.472 6.22631C134.528 5.65031 135.704 5.36231 137 5.36231C138.264 5.36231 139.408 5.63431 140.432 6.17831C141.456 6.72231 142.256 7.50631 142.832 8.53031C143.424 9.53831 143.72 10.7143 143.72 12.0583ZM137.024 8.19431C136.176 8.19431 135.464 8.43431 134.888 8.91431C134.312 9.39431 133.96 10.0503 133.832 10.8823H140.192C140.064 10.0663 139.712 9.41831 139.136 8.93831C138.56 8.44231 137.856 8.19431 137.024 8.19431Z" fill="white"/>
</svg>
