<svg width="17" height="17" viewBox="0 0 17 17" fill="none" xmlns="http://www.w3.org/2000/svg">
<g clip-path="url(#clip0_12002_1508)">
<path d="M10.623 8.44841L16.017 11.8584V4.89441L10.623 8.44841Z" fill="#7F7F7F"/>
<path d="M0.0175781 4.89441V11.8584L5.41158 8.44841L0.0175781 4.89441Z" fill="#7F7F7F"/>
<path d="M15.0169 2.86646H1.01688C0.517875 2.86646 0.121875 3.23846 0.046875 3.71746L8.01687 8.96846L15.9869 3.71746C15.9119 3.23846 15.5159 2.86646 15.0169 2.86646Z" fill="#7F7F7F"/>
<path d="M9.70683 9.05251L8.29183 9.98451C8.20783 10.0395 8.11283 10.0665 8.01683 10.0665C7.92083 10.0665 7.82583 10.0395 7.74183 9.98451L6.32683 9.05151L0.0488281 13.0225C0.125828 13.4975 0.519828 13.8665 1.01683 13.8665H15.0168C15.5138 13.8665 15.9078 13.4975 15.9848 13.0225L9.70683 9.05251Z" fill="#7F7F7F"/>
</g>
<defs>
<clipPath id="clip0_12002_1508">
<rect width="16" height="16" fill="white" transform="translate(0.0175781 0.366455)"/>
</clipPath>
</defs>
</svg>
