<svg width="25" height="25" viewBox="0 0 25 25" fill="none" xmlns="http://www.w3.org/2000/svg">
<g clip-path="url(#clip0_12002_284)">
<path d="M24.4668 7.20276V2.51526C24.4668 1.61062 23.7308 0.874634 22.8262 0.874634H14.3887C13.484 0.874634 12.748 1.61062 12.748 2.51526V7.20276C12.748 8.1074 13.484 8.84338 14.3887 8.84338H16.3007L15.9491 10.2496H12.0137L11.8709 7.10699C11.8195 5.97787 10.8939 5.09338 9.76366 5.09338H5.88873C4.75848 5.09338 3.83289 5.97787 3.78152 7.10699L3.63869 10.2496H1.16992C0.781609 10.2496 0.466797 10.5644 0.466797 10.9528V23.1403C0.466797 23.5286 0.781609 23.8434 1.16992 23.8434C1.55823 23.8434 1.87305 23.5286 1.87305 23.1403V14.4684H3.47102C3.5222 15.0472 3.76516 15.5869 4.17442 16.0152C4.59058 16.4506 5.12955 16.7196 5.71684 16.7917V17.984C5.71684 18.8091 6.32913 19.4935 7.12309 19.6076V21.2974L4.3518 22.0892C4.04987 22.1754 3.8418 22.4513 3.8418 22.7653V24.1715C3.8418 24.5598 4.15661 24.8746 4.54492 24.8746C4.93323 24.8746 5.24805 24.5598 5.24805 24.1715V23.2956L7.12305 22.7599V23.7028C7.12305 24.0911 7.43786 24.4059 7.82617 24.4059C8.21448 24.4059 8.5293 24.0911 8.5293 23.7028V22.7599L10.4043 23.2957V24.1715C10.4043 24.5598 10.7191 24.8746 11.1074 24.8746C11.4957 24.8746 11.8105 24.5598 11.8105 24.1715V22.7653C11.8105 22.4513 11.6025 22.1754 11.3006 22.0892L8.5293 21.2974V19.6077C9.32327 19.4936 9.93555 18.8091 9.93555 17.9841V16.7918C10.5228 16.7196 11.0618 16.4507 11.478 16.0152C11.8872 15.587 12.1302 15.0473 12.1814 14.4684H13.6855V23.1403C13.6855 23.5286 14.0004 23.8434 14.3887 23.8434C14.777 23.8434 15.0918 23.5286 15.0918 23.1403V21.0309H23.0605V23.1403C23.0605 23.5286 23.3754 23.8434 23.7637 23.8434C24.152 23.8434 24.4668 23.5286 24.4668 23.1403V10.9528C24.4668 10.5644 24.152 10.2496 23.7637 10.2496H21.2658L20.9142 8.84338H22.8262C23.7308 8.84338 24.4668 8.1074 24.4668 7.20276ZM3.51081 13.0621H1.87305V11.6559H3.57475L3.51081 13.0621ZM8.5293 17.984C8.5293 18.1132 8.42416 18.2184 8.29492 18.2184H7.35742C7.22819 18.2184 7.12305 18.1132 7.12305 17.984V16.8121H8.5293V17.984ZM10.4613 15.0436C10.238 15.2772 9.93714 15.4059 9.61403 15.4059H6.03836C5.71525 15.4059 5.41436 15.2772 5.19114 15.0436C4.96788 14.81 4.85303 14.5035 4.8677 14.1808L5.18631 7.17079C5.20342 6.79448 5.51195 6.49963 5.88869 6.49963H9.76361C10.1404 6.49963 10.4489 6.79448 10.466 7.17084L10.7846 14.1808C10.7994 14.5036 10.6845 14.81 10.4613 15.0436ZM23.0605 19.6246H15.0918V14.4684H23.0605V19.6246ZM23.0605 11.6559V13.0621H12.1415L12.0776 11.6559H23.0605ZM17.3986 10.2496L17.7501 8.84338H19.4647L19.8162 10.2496H17.3986ZM14.3887 7.43713C14.2594 7.43713 14.1543 7.33199 14.1543 7.20276V2.51526C14.1543 2.38602 14.2594 2.28088 14.3887 2.28088H22.8262C22.9554 2.28088 23.0605 2.38602 23.0605 2.51526V7.20276C23.0605 7.33199 22.9554 7.43713 22.8262 7.43713H14.3887Z" fill="white"/>
<path d="M17.6699 17.2809H20.4824C20.8707 17.2809 21.1855 16.9661 21.1855 16.5778C21.1855 16.1894 20.8707 15.8746 20.4824 15.8746H17.6699C17.2816 15.8746 16.9668 16.1894 16.9668 16.5778C16.9668 16.9661 17.2816 17.2809 17.6699 17.2809Z" fill="white"/>
</g>
<defs>
<clipPath id="clip0_12002_284">
<rect width="24" height="24" fill="white" transform="translate(0.466797 0.874634)"/>
</clipPath>
</defs>
</svg>
