<svg width="51" height="51" viewBox="0 0 51 51" fill="none" xmlns="http://www.w3.org/2000/svg">
<g clip-path="url(#clip0_12002_388)">
<path d="M46.4968 14.0382L46.4952 13.9993C46.4735 13.519 46.459 13.0109 46.4502 12.4456C46.4094 9.68868 44.2179 7.40826 41.4606 7.25415C35.7119 6.93334 31.2647 5.0588 27.4649 1.35512L27.4325 1.32422C26.1931 0.187825 24.3235 0.187825 23.0837 1.32422L23.0513 1.35512C19.2515 5.0588 14.8043 6.93334 9.05562 7.25453C6.29874 7.40826 4.10682 9.68868 4.06601 12.4459C4.05761 13.0075 4.04274 13.5156 4.02099 13.9993L4.0187 14.0897C3.90693 19.9517 3.76808 27.2473 6.20872 33.8692C7.55072 37.5107 9.58319 40.6761 12.2493 43.2781C15.2858 46.2414 19.263 48.5939 24.0702 50.2701C24.2266 50.3246 24.3891 50.3689 24.5547 50.4021C24.7881 50.4486 25.0231 50.4719 25.2581 50.4719C25.4931 50.4719 25.7285 50.4486 25.9615 50.4021C26.1271 50.3689 26.2908 50.3243 26.4479 50.2693C31.2495 48.5901 35.2225 46.2364 38.2563 43.2736C40.9212 40.6708 42.9537 37.5046 44.2968 33.8624C46.7466 27.2206 46.6082 19.9113 46.4968 14.0382ZM41.5442 32.8473C38.97 39.8266 33.7153 44.6198 25.4797 47.4999C25.4504 47.5098 25.4191 47.5186 25.3867 47.525C25.3016 47.5418 25.215 47.5418 25.1288 47.5247C25.0968 47.5182 25.0655 47.5098 25.0365 47.4999C16.7922 44.6251 11.534 39.8346 8.96178 32.8549C6.71225 26.751 6.83967 20.054 6.9522 14.1458L6.95296 14.113C6.97585 13.6052 6.99111 13.0735 6.9995 12.489C7.01781 11.2649 7.99285 10.2521 9.21927 10.1838C12.4724 10.0023 15.3304 9.37359 17.9564 8.26199C20.579 7.15192 22.9083 5.58713 25.0765 3.47837C25.1868 3.3853 25.3298 3.38491 25.4397 3.47837C27.6083 5.58713 29.9376 7.15192 32.5598 8.26199C35.1858 9.37359 38.0438 10.0023 41.2973 10.1838C42.5238 10.2521 43.4988 11.2649 43.5167 12.4894C43.5255 13.0769 43.5408 13.6087 43.5637 14.113C43.6758 20.028 43.8002 26.7304 41.5442 32.8473Z" fill="#244D4D"/>
<path d="M25.2576 13.0121C18.3866 13.0121 12.7969 18.6021 12.7969 25.4728C12.7969 32.3438 18.3866 37.9339 25.2576 37.9339C32.1282 37.9339 37.7183 32.3438 37.7183 25.4728C37.7183 18.6021 32.1282 13.0121 25.2576 13.0121ZM25.2576 34.9996C20.0044 34.9996 15.7308 30.726 15.7308 25.4728C15.7308 20.2196 20.0044 15.946 25.2576 15.946C30.5104 15.946 34.784 20.2196 34.784 25.4728C34.784 30.726 30.5104 34.9996 25.2576 34.9996Z" fill="#244D4D"/>
<path d="M28.8394 21.6043L23.0517 27.392L21.4808 25.8211C20.9078 25.2481 19.979 25.2481 19.406 25.8211C18.8334 26.3941 18.8334 27.3229 19.406 27.8955L22.0145 30.504C22.301 30.7905 22.6763 30.9336 23.0517 30.9336C23.4271 30.9336 23.8024 30.7905 24.0889 30.504L30.9142 23.6788C31.4868 23.1058 31.4868 22.1769 30.9142 21.6043C30.3412 21.031 29.4123 21.031 28.8394 21.6043Z" fill="#244D4D"/>
</g>
<defs>
<clipPath id="clip0_12002_388">
<rect width="50" height="50" fill="white" transform="translate(0.257812 0.472046)"/>
</clipPath>
</defs>
</svg>
