<svg width="16" height="17" viewBox="0 0 16 17" fill="none" xmlns="http://www.w3.org/2000/svg">
<g clip-path="url(#clip0_12002_825)">
<path d="M15.7821 7.94015L11.0208 3.17881C10.7303 2.88831 10.2591 2.88831 9.96863 3.17881C9.67807 3.46937 9.67807 3.94039 9.96863 4.23095L13.4599 7.72226H0.743959C0.333115 7.72226 0 8.05538 0 8.46622C0 8.877 0.333115 9.21018 0.743959 9.21018H13.4599L9.96875 12.7015C9.67819 12.9921 9.67819 13.4631 9.96875 13.7536C10.114 13.8988 10.3044 13.9715 10.4948 13.9715C10.6852 13.9715 10.8756 13.8988 11.0209 13.7536L15.7821 8.99229C16.0727 8.70173 16.0727 8.23071 15.7821 7.94015Z" fill="white"/>
</g>
<defs>
<clipPath id="clip0_12002_825">
<rect width="16" height="16" fill="white" transform="translate(0 0.466309)"/>
</clipPath>
</defs>
</svg>
