<svg width="20" height="21" viewBox="0 0 20 21" fill="none" xmlns="http://www.w3.org/2000/svg">
<g clip-path="url(#clip0_12002_840)">
<path d="M10.0019 20.9251C15.5247 20.9251 20.0018 16.448 20.0018 10.9252C20.0018 5.40241 15.5247 0.925293 10.0019 0.925293C4.47907 0.925293 0.00195312 5.40241 0.00195312 10.9252C0.00195312 16.448 4.47907 20.9251 10.0019 20.9251Z" fill="white"/>
<path d="M16.1271 8.11185C15.6986 8.30188 15.2376 8.4304 14.7542 8.4878C15.2478 8.19207 15.6266 7.72414 15.8054 7.16566C15.3435 7.43964 14.8317 7.6384 14.2875 7.74553C13.8515 7.28117 13.2303 6.99097 12.5424 6.99097C11.2226 6.99097 10.1521 8.06141 10.1521 9.38123C10.1521 9.56858 10.1733 9.75093 10.2143 9.92598C8.22782 9.82634 6.46646 8.8748 5.28746 7.42823C5.08175 7.78118 4.96374 8.19207 4.96374 8.63005C4.96374 9.45913 5.38603 10.1911 6.02705 10.6196C5.63542 10.6073 5.2666 10.4998 4.94449 10.3203C4.94431 10.3305 4.94431 10.3406 4.94431 10.3506C4.94431 11.5087 5.76858 12.4747 6.86183 12.6941C6.66147 12.7491 6.44988 12.7781 6.23222 12.7781C6.07785 12.7781 5.92829 12.7633 5.78248 12.7355C6.08659 13.6849 6.96914 14.376 8.01534 14.3954C7.19713 15.0366 6.16663 15.4186 5.04645 15.4186C4.85393 15.4186 4.6632 15.4074 4.47656 15.3851C5.53381 16.0636 6.79053 16.4591 8.1403 16.4591C12.5368 16.4591 14.9412 12.817 14.9412 9.65806C14.9412 9.55449 14.9389 9.45128 14.9342 9.34896C15.4016 9.01205 15.8068 8.59119 16.1271 8.11185Z" fill="#305F64"/>
</g>
<defs>
<clipPath id="clip0_12002_840">
<rect width="20" height="20" fill="white" transform="translate(0 0.925293)"/>
</clipPath>
</defs>
</svg>
